<svg width="16" height="16" viewBox="0 0 16 16" fill="none" xmlns="http://www.w3.org/2000/svg">
<path d="M2.07387 5.93629C1.58029 5.93629 1.3335 5.68505 1.3335 5.18258V3.5751C1.3335 2.84585 1.5247 2.29002 1.90712 1.9076C2.29398 1.52519 2.85648 1.33398 3.59463 1.33398H5.2021C5.70457 1.33398 5.95581 1.58077 5.95581 2.07435C5.95581 2.57238 5.70457 2.82139 5.2021 2.82139H3.71469C3.42121 2.82139 3.19665 2.89699 3.04102 3.04817C2.88983 3.19491 2.81424 3.42169 2.81424 3.72851V5.18258C2.81424 5.68505 2.56745 5.93629 2.07387 5.93629ZM13.9198 5.93629C13.4262 5.93629 13.1794 5.68505 13.1794 5.18258V3.72851C13.1794 3.42169 13.1016 3.19491 12.946 3.04817C12.7903 2.89699 12.568 2.82139 12.279 2.82139H10.7916C10.2935 2.82139 10.0445 2.57238 10.0445 2.07435C10.0445 1.58077 10.2935 1.33398 10.7916 1.33398H12.4057C13.1438 1.33398 13.7041 1.52519 14.0865 1.9076C14.4734 2.29002 14.6668 2.84585 14.6668 3.5751V5.18258C14.6668 5.68505 14.4178 5.93629 13.9198 5.93629ZM3.59463 14.6673C2.85648 14.6673 2.29398 14.4761 1.90712 14.0937C1.5247 13.7113 1.3335 13.1554 1.3335 12.4262V10.8121C1.3335 10.314 1.58029 10.065 2.07387 10.065C2.56745 10.065 2.81424 10.314 2.81424 10.8121V12.2728C2.81424 12.5796 2.88983 12.8064 3.04102 12.9531C3.19665 13.1043 3.42121 13.1799 3.71469 13.1799H5.2021C5.70457 13.1799 5.95581 13.4289 5.95581 13.9269C5.95581 14.4205 5.70457 14.6673 5.2021 14.6673H3.59463ZM10.7916 14.6673C10.2935 14.6673 10.0445 14.4205 10.0445 13.9269C10.0445 13.4289 10.2935 13.1799 10.7916 13.1799H12.279C12.568 13.1799 12.7903 13.1043 12.946 12.9531C13.1016 12.8064 13.1794 12.5796 13.1794 12.2728V10.8121C13.1794 10.314 13.4262 10.065 13.9198 10.065C14.4178 10.065 14.6668 10.314 14.6668 10.8121V12.4262C14.6668 13.1554 14.4734 13.7113 14.0865 14.0937C13.7041 14.4761 13.1438 14.6673 12.4057 14.6673H10.7916ZM5.51559 7.5571C5.35551 7.5571 5.22211 7.50596 5.11539 7.40369C5.00867 7.29697 4.95531 7.15912 4.95531 6.99015V6.05635C4.95531 5.89182 5.00867 5.7562 5.11539 5.64948C5.22211 5.54276 5.35551 5.4894 5.51559 5.4894C5.68011 5.4894 5.81574 5.54276 5.92246 5.64948C6.03362 5.7562 6.08921 5.89182 6.08921 6.05635V6.99015C6.08921 7.15912 6.03362 7.29697 5.92246 7.40369C5.81574 7.50596 5.68011 7.5571 5.51559 7.5571ZM7.4699 9.11788C7.29203 9.11788 7.15196 9.07341 7.04969 8.98448C6.94741 8.89554 6.89628 8.77326 6.89628 8.61763C6.89628 8.48423 6.94074 8.37306 7.02968 8.28413C7.12306 8.19075 7.23645 8.14406 7.36985 8.14406H7.55661C7.58329 8.14406 7.60552 8.13739 7.62331 8.12405C7.64109 8.11071 7.64999 8.08847 7.64999 8.05735V5.9563C7.64999 5.814 7.69445 5.70061 7.78339 5.61613C7.87232 5.52719 7.98793 5.48273 8.13023 5.48273C8.27252 5.48273 8.38813 5.52719 8.47707 5.61613C8.566 5.70061 8.61047 5.814 8.61047 5.9563V8.03734C8.61047 8.38862 8.51709 8.65765 8.33033 8.84441C8.14357 9.02672 7.87677 9.11788 7.52993 9.11788C7.51659 9.11788 7.50547 9.11788 7.49658 9.11788C7.48768 9.11788 7.47879 9.11788 7.4699 9.11788ZM10.4647 7.5571C10.2958 7.5571 10.1579 7.50596 10.0512 7.40369C9.94447 7.29697 9.89111 7.15912 9.89111 6.99015V6.05635C9.89111 5.89182 9.94447 5.7562 10.0512 5.64948C10.1579 5.54276 10.2958 5.4894 10.4647 5.4894C10.6248 5.4894 10.7582 5.54276 10.8649 5.64948C10.9716 5.7562 11.025 5.89182 11.025 6.05635V6.99015C11.025 7.15912 10.9716 7.29697 10.8649 7.40369C10.7582 7.50596 10.6248 7.5571 10.4647 7.5571ZM7.96348 11.2856C7.54549 11.2856 7.1364 11.2056 6.7362 11.0455C6.34044 10.881 6.01139 10.6475 5.74904 10.3452C5.70012 10.2873 5.66455 10.2318 5.64232 10.1784C5.62008 10.1206 5.60897 10.0606 5.60897 9.99832C5.60897 9.86047 5.65566 9.74708 5.74904 9.65815C5.84242 9.56477 5.95581 9.51808 6.08921 9.51808C6.17369 9.51808 6.24484 9.53586 6.30265 9.57144C6.36045 9.60701 6.41826 9.6537 6.47607 9.71151C6.66727 9.90271 6.89405 10.0539 7.15641 10.1651C7.41876 10.2762 7.68778 10.3318 7.96348 10.3318C8.24806 10.3318 8.52376 10.2762 8.79056 10.1651C9.05736 10.0495 9.27747 9.90049 9.45089 9.71818C9.57539 9.58478 9.70212 9.51808 9.83108 9.51808C9.96448 9.51808 10.0779 9.56477 10.1712 9.65815C10.2646 9.74708 10.3113 9.86047 10.3113 9.99832C10.3113 10.0739 10.3002 10.1406 10.278 10.1984C10.2557 10.2562 10.2224 10.3074 10.1779 10.3518C9.88444 10.6453 9.54204 10.8743 9.15074 11.0388C8.76388 11.2034 8.36812 11.2856 7.96348 11.2856Z" fill="#08090C"/>
</svg>
