<svg width="16" height="16" viewBox="0 0 16 16" fill="none" xmlns="http://www.w3.org/2000/svg">
<path d="M11.8769 2.98065C11.8236 2.98065 11.7702 2.96732 11.7236 2.94065C10.4436 2.28065 9.3369 2.00065 8.01024 2.00065C6.69024 2.00065 5.4369 2.31398 4.2969 2.94065C4.1369 3.02732 3.9369 2.96732 3.84357 2.80732C3.7569 2.64732 3.8169 2.44065 3.9769 2.35398C5.2169 1.68065 6.5769 1.33398 8.01024 1.33398C9.43024 1.33398 10.6702 1.64732 12.0302 2.34732C12.1969 2.43398 12.2569 2.63398 12.1702 2.79398C12.1102 2.91398 11.9969 2.98065 11.8769 2.98065ZM2.3369 6.48065C2.27024 6.48065 2.20357 6.46065 2.14357 6.42065C1.99024 6.31398 1.9569 6.10732 2.06357 5.95398C2.72357 5.02065 3.56357 4.28732 4.56357 3.77398C6.6569 2.69398 9.3369 2.68732 11.4369 3.76732C12.4369 4.28065 13.2769 5.00732 13.9369 5.93398C14.0436 6.08065 14.0102 6.29398 13.8569 6.40065C13.7036 6.50732 13.4969 6.47398 13.3902 6.32065C12.7902 5.48065 12.0302 4.82065 11.1302 4.36065C9.2169 3.38065 6.77024 3.38065 4.86357 4.36732C3.9569 4.83398 3.1969 5.50065 2.5969 6.34065C2.54357 6.43398 2.44357 6.48065 2.3369 6.48065ZM6.50357 14.5273C6.4169 14.5273 6.33024 14.494 6.27024 14.4273C5.69024 13.8473 5.3769 13.474 4.93024 12.6673C4.47024 11.8473 4.23024 10.8473 4.23024 9.77398C4.23024 7.79398 5.92357 6.18065 8.00357 6.18065C10.0836 6.18065 11.7769 7.79398 11.7769 9.77398C11.7769 9.96065 11.6302 10.1073 11.4436 10.1073C11.2569 10.1073 11.1102 9.96065 11.1102 9.77398C11.1102 8.16065 9.7169 6.84732 8.00357 6.84732C6.29024 6.84732 4.8969 8.16065 4.8969 9.77398C4.8969 10.734 5.11024 11.6207 5.5169 12.3407C5.94357 13.1073 6.2369 13.434 6.75024 13.954C6.8769 14.0873 6.8769 14.294 6.75024 14.4273C6.6769 14.494 6.59024 14.5273 6.50357 14.5273ZM11.2836 13.294C10.4902 13.294 9.79024 13.094 9.2169 12.7006C8.22357 12.0273 7.63024 10.934 7.63024 9.77398C7.63024 9.58732 7.7769 9.44065 7.96357 9.44065C8.15024 9.44065 8.2969 9.58732 8.2969 9.77398C8.2969 10.714 8.7769 11.6006 9.59024 12.1473C10.0636 12.4673 10.6169 12.6207 11.2836 12.6207C11.4436 12.6207 11.7102 12.6007 11.9769 12.554C12.1569 12.5207 12.3302 12.6407 12.3636 12.8273C12.3969 13.0073 12.2769 13.1807 12.0902 13.214C11.7102 13.2873 11.3769 13.294 11.2836 13.294ZM9.94357 14.6673C9.9169 14.6673 9.88357 14.6606 9.8569 14.654C8.7969 14.3606 8.10357 13.9673 7.3769 13.254C6.44357 12.3273 5.93024 11.094 5.93024 9.77398C5.93024 8.69398 6.85024 7.81398 7.98357 7.81398C9.1169 7.81398 10.0369 8.69398 10.0369 9.77398C10.0369 10.4873 10.6569 11.0673 11.4236 11.0673C12.1902 11.0673 12.8102 10.4873 12.8102 9.77398C12.8102 7.26065 10.6436 5.22065 7.9769 5.22065C6.08357 5.22065 4.35024 6.27398 3.57024 7.90732C3.31024 8.44732 3.1769 9.08065 3.1769 9.77398C3.1769 10.294 3.22357 11.114 3.62357 12.1807C3.69024 12.354 3.60357 12.5473 3.43024 12.6073C3.2569 12.674 3.06357 12.5807 3.00357 12.414C2.6769 11.5407 2.5169 10.674 2.5169 9.77398C2.5169 8.97398 2.67024 8.24732 2.97024 7.61398C3.8569 5.75398 5.82357 4.54732 7.9769 4.54732C11.0102 4.54732 13.4769 6.88732 13.4769 9.76732C13.4769 10.8473 12.5569 11.7273 11.4236 11.7273C10.2902 11.7273 9.37024 10.8473 9.37024 9.76732C9.37024 9.05398 8.75024 8.47398 7.98357 8.47398C7.2169 8.47398 6.5969 9.05398 6.5969 9.76732C6.5969 10.9073 7.0369 11.974 7.84357 12.774C8.4769 13.4007 9.08357 13.7473 10.0236 14.0073C10.2036 14.054 10.3036 14.2407 10.2569 14.414C10.2236 14.5673 10.0836 14.6673 9.94357 14.6673Z" fill="#08090C"/>
</svg>
