<svg width="14" height="14" viewBox="0 0 14 14" fill="none" xmlns="http://www.w3.org/2000/svg">
<path d="M6.4165 4.08464H7.58317V5.2513H6.4165V4.08464ZM6.4165 6.41797H7.58317V9.91797H6.4165V6.41797ZM6.99984 1.16797C3.77984 1.16797 1.1665 3.7813 1.1665 7.0013C1.1665 10.2213 3.77984 12.8346 6.99984 12.8346C10.2198 12.8346 12.8332 10.2213 12.8332 7.0013C12.8332 3.7813 10.2198 1.16797 6.99984 1.16797ZM6.99984 11.668C4.42734 11.668 2.33317 9.5738 2.33317 7.0013C2.33317 4.4288 4.42734 2.33464 6.99984 2.33464C9.57234 2.33464 11.6665 4.4288 11.6665 7.0013C11.6665 9.5738 9.57234 11.668 6.99984 11.668Z" fill="white"/>
</svg>
